<svg width="16" height="17" viewBox="0 0 16 17" fill="none" xmlns="http://www.w3.org/2000/svg">
<path d="M14.6668 7.23334C14.7335 6.90001 14.4668 6.50001 14.1335 6.50001L10.3335 5.96668L8.60016 2.50001C8.5335 2.36668 8.46683 2.30001 8.3335 2.23334C8.00016 2.03334 7.60016 2.16668 7.40016 2.50001L5.7335 5.96668L1.9335 6.50001C1.7335 6.50001 1.60016 6.56668 1.5335 6.70001C1.26683 6.96668 1.26683 7.36668 1.5335 7.63334L4.26683 10.3L3.60016 14.1C3.60016 14.2333 3.60016 14.3667 3.66683 14.5C3.86683 14.8333 4.26683 14.9667 4.60016 14.7667L8.00016 12.9667L11.4002 14.7667C11.4668 14.8333 11.6002 14.8333 11.7335 14.8333H11.8668C12.2002 14.7667 12.4668 14.4333 12.4002 14.0333L11.7335 10.2333L14.4668 7.56668C14.6002 7.50001 14.6668 7.36668 14.6668 7.23334Z" fill="#2C2D2C"/>
</svg>
