<svg width="24" height="24" viewBox="0 0 24 24" fill="none" xmlns="http://www.w3.org/2000/svg">
<g id="basil:unlock-outline">
<path id="Vector" d="M10.5 16C10.5 15.6022 10.658 15.2206 10.9393 14.9393C11.2206 14.658 11.6022 14.5 12 14.5C12.3978 14.5 12.7794 14.658 13.0607 14.9393C13.342 15.2206 13.5 15.6022 13.5 16C13.5 16.3978 13.342 16.7794 13.0607 17.0607C12.7794 17.342 12.3978 17.5 12 17.5C11.6022 17.5 11.2206 17.342 10.9393 17.0607C10.658 16.7794 10.5 16.3978 10.5 16Z" fill="black"/>
<path id="Vector_2" fill-rule="evenodd" clip-rule="evenodd" d="M9.8099 4.00501C10.2019 3.84895 10.6209 3.77195 11.0427 3.77844C11.4646 3.78493 11.881 3.87477 12.268 4.04281C12.655 4.21085 13.005 4.45375 13.2977 4.75756C13.5905 5.06136 13.8203 5.42006 13.9739 5.81301L14.0489 6.00501C14.1419 6.24301 14.2089 6.49101 14.2469 6.74301L14.4639 8.16601L15.9469 7.94001L15.7299 6.51701C15.6748 6.15532 15.5799 5.80083 15.4469 5.46001L15.3719 5.26701C14.9509 4.18986 14.1475 3.30576 13.1154 2.78386C12.0833 2.26196 10.8951 2.1389 9.77797 2.43823C8.66086 2.73757 7.69333 3.43827 7.06049 4.40628C6.42766 5.37429 6.17394 6.54165 6.3479 7.68501L6.3779 7.88901C6.4339 8.25101 6.5289 8.60601 6.6619 8.94701L7.3169 10.622L6.9349 10.652C6.40883 10.694 5.912 10.9111 5.52374 11.2685C5.13548 11.626 4.87817 12.1032 4.7929 12.624C4.42678 14.8598 4.42678 17.1402 4.7929 19.376C4.87817 19.8968 5.13548 20.374 5.52374 20.7315C5.912 21.0889 6.40883 21.306 6.9349 21.348L8.4309 21.468C10.8069 21.658 13.1929 21.658 15.5689 21.468L17.0649 21.348C17.591 21.306 18.0878 21.0889 18.4761 20.7315C18.8643 20.374 19.1216 19.8968 19.2069 19.376C19.573 17.1402 19.573 14.8598 19.2069 12.624C19.1216 12.1032 18.8643 11.626 18.4761 11.2685C18.0878 10.9111 17.591 10.694 17.0649 10.652L15.5689 10.532C13.3428 10.3545 11.1066 10.3434 8.8789 10.499L8.0589 8.40101C7.96619 8.16303 7.90013 7.91553 7.8619 7.66301L7.8299 7.46001C7.721 6.74512 7.85745 6.01442 8.217 5.387C8.57656 4.75959 9.13803 4.27246 9.8099 4.00501ZM15.4499 12.028C13.1535 11.8447 10.8462 11.8447 8.5499 12.028L7.0539 12.148C6.8621 12.1634 6.68096 12.2425 6.5394 12.3728C6.39784 12.5031 6.30402 12.6771 6.2729 12.867C5.93318 14.9419 5.93318 17.0582 6.2729 19.133C6.30381 19.3231 6.39755 19.4973 6.53913 19.6278C6.68071 19.7583 6.86195 19.8376 7.0539 19.853L8.5509 19.973C10.8469 20.156 13.1529 20.156 15.4489 19.973L16.9449 19.853C17.137 19.8378 17.3185 19.7586 17.4603 19.6281C17.6021 19.4976 17.6959 19.3232 17.7269 19.133C18.0666 17.0582 18.0666 14.9419 17.7269 12.867C17.6959 12.6768 17.6021 12.5025 17.4603 12.3719C17.3185 12.2414 17.137 12.1622 16.9449 12.147L15.4489 12.027L15.4499 12.028Z" fill="black"/>
</g>
</svg>
