<svg width="48" height="48" viewBox="0 0 48 48" fill="none" xmlns="http://www.w3.org/2000/svg">
<path d="M24.4387 42L21.9101 39.733C18.9746 37.0881 16.5477 34.8065 14.6294 32.8883C12.7112 30.97 11.1853 29.2477 10.0518 27.7212C8.91826 26.1959 8.12654 24.7938 7.67662 23.515C7.2267 22.2361 7.00116 20.9282 7 19.5913C7 16.8592 7.91553 14.5777 9.74659 12.7466C11.5777 10.9155 13.8592 10 16.5913 10C18.1026 10 19.5413 10.3197 20.9074 10.9591C22.2734 11.5985 23.4505 12.4995 24.4387 13.6621C25.4269 12.4995 26.604 11.5985 27.97 10.9591C29.3361 10.3197 30.7747 10 32.2861 10C35.0182 10 37.2997 10.9155 39.1308 12.7466C40.9618 14.5777 41.8774 16.8592 41.8774 19.5913C41.8774 20.9282 41.6518 22.2361 41.2008 23.515C40.7497 24.7938 39.958 26.1959 38.8256 27.7212C37.6921 29.2477 36.1662 30.97 34.248 32.8883C32.3297 34.8065 29.9028 37.0881 26.9673 39.733L24.4387 42ZM24.4387 37.2916C27.2289 34.792 29.525 32.6482 31.327 30.8602C33.129 29.0721 34.5531 27.5177 35.5995 26.1971C36.6458 24.874 37.3724 23.6963 37.7793 22.664C38.1862 21.6316 38.3896 20.6074 38.3896 19.5913C38.3896 17.8474 37.8084 16.3942 36.6458 15.2316C35.4832 14.069 34.03 13.4877 32.2861 13.4877C30.9201 13.4877 29.6558 13.8726 28.4932 14.6422C27.3306 15.4118 26.5313 16.393 26.0954 17.5858H22.782C22.346 16.3942 21.5468 15.413 20.3842 14.6422C19.2216 13.8714 17.9573 13.4866 16.5913 13.4877C14.8474 13.4877 13.3942 14.069 12.2316 15.2316C11.069 16.3942 10.4877 17.8474 10.4877 19.5913C10.4877 20.6085 10.6912 21.6334 11.0981 22.6657C11.505 23.6981 12.2316 24.8752 13.2779 26.1971C14.3243 27.5189 15.7484 29.0739 17.5504 30.8619C19.3524 32.65 21.6485 34.7932 24.4387 37.2916Z" fill="black"/>
</svg>
