<svg width="172" height="18" viewBox="0 0 172 18" fill="none" xmlns="http://www.w3.org/2000/svg">
<g id="Asset 9ldpi 1" clip-path="url(#clip0_101_423)">
<g id="Layer 1">
<g id="Group">
<g id="Group_2">
<g id="Group_3">
<path id="Vector" d="M27.9606 0.537109H25.3535V17.3708H27.9606V0.537109Z" fill="white"/>
<path id="Vector_2" d="M43.1039 4.80652C41.3366 4.80652 39.927 5.48346 39.0208 6.76238C38.2646 5.51774 36.9022 4.80652 35.2612 4.80652C33.9266 4.80652 32.8555 5.25425 31.9922 6.17326L31.7994 4.94576H29.6057V17.3686H32.0971V10.8326C32.0971 8.58756 33.2111 7.13513 34.9356 7.13513C37.0521 7.13513 37.4956 8.8939 37.4956 10.3678V17.3686H39.987V10.7384C39.987 8.48045 41.0645 7.13513 42.8704 7.13513C44.9484 7.13513 45.3833 8.8939 45.3833 10.3678V17.3686H47.8747V10.2521C47.8747 6.79023 46.1352 4.80652 43.1018 4.80652H43.1039Z" fill="white"/>
<path id="Vector_3" d="M63.0073 4.80652C61.2399 4.80652 59.8303 5.48346 58.9242 6.76238C58.1679 5.51774 56.8055 4.80652 55.1645 4.80652C53.8299 4.80652 52.7588 5.25425 51.8955 6.17326L51.7027 4.94576H49.509V17.3686H52.0005V10.8326C52.0005 8.58756 53.1144 7.13513 54.8389 7.13513C56.9554 7.13513 57.3989 8.8939 57.3989 10.3678V17.3686H59.8903V10.7384C59.8903 8.48045 60.9678 7.13513 62.7737 7.13513C64.8517 7.13513 65.2866 8.8939 65.2866 10.3678V17.3686H67.778V10.2521C67.778 6.79023 66.0385 4.80652 63.0051 4.80652H63.0073Z" fill="white"/>
<path id="Vector_4" d="M70.8973 0.492065C70.0276 0.492065 69.3721 1.14759 69.3721 2.01734C69.3721 2.88708 70.0276 3.54261 70.8973 3.54261C71.7671 3.54261 72.4226 2.88708 72.4226 2.01734C72.4226 1.14759 71.7671 0.492065 70.8973 0.492065Z" fill="white"/>
<path id="Vector_5" d="M72.1206 4.9458H69.6292V17.3686H72.1206V4.9458Z" fill="white"/>
<path id="Vector_6" d="M81.9254 9.37805H73.9949V11.5674H81.9254V9.37805Z" fill="white"/>
<path id="Vector_7" d="M86.8914 13.9667V7.27651H89.9548V4.94791H86.8914V1.62744H84.4V4.94576H82.2642V7.27437H84.4V13.9881C84.4 16.3574 85.4111 17.3686 87.7804 17.3686H90.1412V15.04H87.9668C87.112 15.04 86.8914 14.8193 86.8914 13.9646V13.9667Z" fill="white"/>
<path id="Vector_8" d="M93.5837 6.26536L93.3952 4.94575H91.1973V17.3686H93.6887V11.0404C93.6887 9.67794 94.0614 7.39004 96.5507 7.39004H97.7975V4.9436H96.9684C95.4625 4.9436 94.3528 5.37633 93.5837 6.26322V6.26536Z" fill="white"/>
<path id="Vector_9" d="M108.727 14.5473V9.37162C108.727 6.47103 106.887 4.80652 103.676 4.80652C100.651 4.80652 98.6672 6.28252 98.3715 8.75466L98.333 9.08456H100.812L100.857 8.84677C101.069 7.74566 102.088 7.09014 103.584 7.09014C105.27 7.09014 106.236 7.87848 106.236 9.25594V9.77436H103.05C99.7918 9.77436 97.9988 11.1904 97.9988 13.7589C97.9988 16.0383 99.8261 17.5121 102.656 17.5121C104.218 17.5121 105.484 16.9937 106.422 15.9697C106.673 16.9144 107.44 17.3729 108.759 17.3729H110.098V15.0443H109.201C108.813 15.0443 108.729 15.0014 108.729 14.5494L108.727 14.5473ZM102.793 15.297C101.407 15.297 100.512 14.6479 100.512 13.6432C100.512 12.5143 101.281 11.9659 102.862 11.9659H106.234V12.2508C106.234 14.1295 104.914 15.297 102.793 15.297Z" fill="white"/>
<path id="Vector_10" d="M117.065 4.80652C115.19 4.80652 114.027 5.52845 113.359 6.18183L113.161 4.94576H110.968V17.3686H113.459V11.1561C113.459 8.63898 114.685 7.13513 116.739 7.13513C119.143 7.13513 119.646 9.01815 119.646 10.5991V17.3686H122.137V10.4834C122.137 5.54345 118.958 4.80652 117.062 4.80652H117.065Z" fill="white"/>
<path id="Vector_11" d="M128.718 9.8923C126.936 9.67594 126.006 9.51527 126.006 8.51485C126.006 7.60868 126.975 7.02171 128.474 7.02171C129.892 7.02171 130.931 7.76506 131.06 8.8726L131.09 9.13395H133.62L133.596 8.8169C133.408 6.33191 131.495 4.83449 128.478 4.80878C126.865 4.80235 125.473 5.28007 124.569 6.17553C123.896 6.8439 123.538 7.7008 123.538 8.65195C123.538 11.4154 126.017 11.951 128.556 12.2638L128.684 12.2788C130.539 12.4973 131.36 12.6429 131.36 13.7805C131.36 14.6738 130.308 15.295 128.8 15.295C127.056 15.295 125.886 14.4574 125.822 13.1614L125.807 12.8807H123.277L123.281 13.1806C123.329 15.8499 125.443 17.5079 128.798 17.5079C131.758 17.5079 133.825 15.9184 133.825 13.6391C133.825 10.7449 131.409 10.2136 128.716 9.88802L128.718 9.8923Z" fill="white"/>
<path id="Vector_12" d="M145.424 14.5473V9.37162C145.424 6.47103 143.583 4.80652 140.372 4.80652C137.347 4.80652 135.364 6.28252 135.068 8.75466L135.03 9.08456H137.508L137.553 8.84677C137.765 7.74566 138.785 7.09014 140.28 7.09014C141.966 7.09014 142.932 7.87848 142.932 9.25594V9.77436H139.747C136.488 9.77436 134.695 11.1904 134.695 13.7589C134.695 16.0383 136.523 17.5121 139.353 17.5121C140.914 17.5121 142.18 16.9937 143.119 15.9697C143.369 16.9144 144.136 17.3729 145.456 17.3729H146.795V15.0443H145.897C145.509 15.0443 145.426 15.0014 145.426 14.5494L145.424 14.5473ZM139.49 15.297C138.104 15.297 137.208 14.6479 137.208 13.6432C137.208 12.5143 137.977 11.9659 139.558 11.9659H142.93V12.2508C142.93 14.1295 141.61 15.297 139.49 15.297Z" fill="white"/>
<path id="Vector_13" d="M152.945 7.0902C154.504 7.0902 155.584 7.92781 155.906 9.38881L155.957 9.62017H158.545L158.478 9.27099C157.947 6.43467 155.938 4.80872 152.968 4.80872C149.393 4.80872 146.895 7.43081 146.895 11.1819C146.895 14.9329 149.26 17.51 152.921 17.51C155.899 17.51 157.975 15.8584 158.478 13.0906L158.54 12.7436H155.938L155.882 12.9685C155.533 14.3824 154.436 15.2264 152.943 15.2264C150.843 15.2264 149.432 13.6004 149.432 11.1819C149.432 8.76328 150.843 7.0902 152.943 7.0902H152.945Z" fill="white"/>
<path id="Vector_14" d="M164.432 15.04C163.577 15.04 163.356 14.8193 163.356 13.9646V7.27437H166.42V4.94576H163.356V1.62744H160.865V4.94576H158.729V7.27437H160.865V13.9881C160.865 16.3574 161.876 17.3686 164.245 17.3686H166.606V15.04H164.432Z" fill="white"/>
</g>
<path id="Vector_15" d="M168.41 3.74825V1.99376H167.681V1.62744H169.524V1.99376H168.795V3.74825H168.408H168.41ZM169.766 3.75254V1.62744H170.353L170.871 3.23412H170.897L171.426 1.62744H172.002V3.75254H171.615V2.16086H171.593L171.06 3.75254H170.683L170.143 2.13515H170.121V3.75254H169.766Z" fill="white"/>
</g>
<g id="Group_4">
<g id="Group_5">
<path id="Vector_16" d="M19.565 8.98389H0V11.1261H19.565V8.98389Z" fill="white"/>
<path id="Vector_17" d="M6.76946 12.4908H0V14.6331H6.76946V12.4908Z" fill="white"/>
<path id="Vector_18" d="M19.5652 5.47498H12.7979V7.61721H19.5652V5.47498Z" fill="white"/>
</g>
<g id="Group_6">
<g id="Group_7">
<path id="Vector_19" d="M3.62221 2.37962L2.10742 3.89441L15.942 17.729L17.4568 16.2142L3.62221 2.37962Z" fill="white"/>
<path id="Vector_20" d="M15.942 2.38101L2.10742 16.2156L3.62221 17.7304L17.4568 3.8958L15.942 2.38101Z" fill="white"/>
</g>
<path id="Vector_21" d="M10.8546 0.271484H8.7124V10.0551H10.8546V0.271484Z" fill="white"/>
</g>
</g>
</g>
</g>
</g>
<defs>
<clipPath id="clip0_101_423">
<rect width="172" height="17.4571" fill="white" transform="translate(0 0.271484)"/>
</clipPath>
</defs>
</svg>
