<svg width="48" height="48" viewBox="0 0 48 48" fill="none" xmlns="http://www.w3.org/2000/svg">
<g id="Group">
<path id="Vector" fill-rule="evenodd" clip-rule="evenodd" d="M16.586 25.4139C16.211 25.0388 16.0004 24.5302 16.0004 23.9999C16.0004 23.4696 16.211 22.9609 16.586 22.5859L27.9 11.2719C28.0845 11.0809 28.3052 10.9285 28.5492 10.8237C28.7932 10.7189 29.0556 10.6637 29.3212 10.6614C29.5867 10.6591 29.8501 10.7097 30.0959 10.8102C30.3417 10.9108 30.565 11.0593 30.7528 11.2471C30.9406 11.4349 31.0891 11.6582 31.1896 11.904C31.2902 12.1498 31.3408 12.4131 31.3385 12.6787C31.3362 12.9442 31.281 13.2067 31.1762 13.4507C31.0714 13.6947 30.919 13.9154 30.728 14.0999L20.828 23.9999L30.728 33.8999C31.0923 34.2771 31.2939 34.7823 31.2893 35.3067C31.2848 35.8311 31.0744 36.3327 30.7036 36.7035C30.3328 37.0743 29.8312 37.2847 29.3068 37.2892C28.7824 37.2938 28.2772 37.0922 27.9 36.7279L16.586 25.4139Z" fill="#2C2D2C"/>
</g>
</svg>
