<svg width="48" height="48" viewBox="0 0 48 48" fill="none" xmlns="http://www.w3.org/2000/svg">
<g id="Group">
<path id="Vector" fill-rule="evenodd" clip-rule="evenodd" d="M31.414 22.5861C31.789 22.9612 31.9996 23.4698 31.9996 24.0001C31.9996 24.5304 31.789 25.0391 31.414 25.4141L20.1 36.7281C19.9155 36.9191 19.6948 37.0715 19.4508 37.1763C19.2068 37.2811 18.9444 37.3363 18.6788 37.3386C18.4133 37.3409 18.1499 37.2903 17.9041 37.1898C17.6583 37.0892 17.435 36.9407 17.2472 36.7529C17.0594 36.5651 16.9109 36.3418 16.8104 36.096C16.7098 35.8502 16.6592 35.5869 16.6615 35.3213C16.6638 35.0558 16.719 34.7933 16.8238 34.5493C16.9286 34.3053 17.081 34.0846 17.272 33.9001L27.172 24.0001L17.272 14.1001C16.9077 13.7229 16.7061 13.2177 16.7107 12.6933C16.7152 12.1689 16.9256 11.6673 17.2964 11.2965C17.6672 10.9257 18.1688 10.7153 18.6932 10.7108C19.2176 10.7062 19.7228 10.9078 20.1 11.2721L31.414 22.5861Z" fill="#2C2D2C"/>
</g>
</svg>
