<svg width="339" height="36" viewBox="0 0 339 36" fill="none" xmlns="http://www.w3.org/2000/svg">
<g clip-path="url(#clip0_48_352)">
<path d="M55.1081 1.01367H49.9697V34.8012H55.1081V1.01367Z" fill="black"/>
<path d="M84.9549 9.58301C81.4716 9.58301 78.6934 10.9417 76.9074 13.5087C75.4169 11.0105 72.7316 9.58301 69.4974 9.58301C66.867 9.58301 64.7559 10.4817 63.0544 12.3263L62.6744 9.86249H58.3508V34.7968H63.2612V21.6782C63.2612 17.1721 65.4568 14.2568 68.8557 14.2568C73.0272 14.2568 73.9012 17.787 73.9012 20.7452V34.7968H78.8116V21.489C78.8116 16.9571 80.9353 14.2568 84.4947 14.2568C88.5902 14.2568 89.4473 17.787 89.4473 20.7452V34.7968H94.3577V20.513C94.3577 13.5646 90.9293 9.58301 84.9507 9.58301H84.9549Z" fill="black"/>
<path d="M124.183 9.58301C120.7 9.58301 117.922 10.9417 116.136 13.5087C114.645 11.0105 111.96 9.58301 108.726 9.58301C106.095 9.58301 103.984 10.4817 102.283 12.3263L101.903 9.86249H97.5791V34.7968H102.49V21.6782C102.49 17.1721 104.685 14.2568 108.084 14.2568C112.255 14.2568 113.129 17.787 113.129 20.7452V34.7968H118.04V21.489C118.04 16.9571 120.164 14.2568 123.723 14.2568C127.818 14.2568 128.676 17.787 128.676 20.7452V34.7968H133.586V20.513C133.586 13.5646 130.158 9.58301 124.179 9.58301H124.183Z" fill="black"/>
<path d="M139.734 0.92334C138.019 0.92334 136.727 2.23907 136.727 3.98477C136.727 5.73047 138.019 7.0462 139.734 7.0462C141.448 7.0462 142.74 5.73047 142.74 3.98477C142.74 2.23907 141.448 0.92334 139.734 0.92334Z" fill="black"/>
<path d="M142.145 9.8623H137.234V34.7966H142.145V9.8623Z" fill="black"/>
<path d="M161.469 18.7588H145.839V23.1531H161.469V18.7588Z" fill="black"/>
<path d="M171.257 27.9688V14.5406H177.294V9.86678H171.257V3.20215H166.346V9.86248H162.137V14.5363H166.346V28.0118C166.346 32.7673 168.339 34.7968 173.009 34.7968H177.662V30.123H173.376C171.691 30.123 171.257 29.6801 171.257 27.9645V27.9688Z" fill="black"/>
<path d="M184.447 12.5109L184.075 9.86221H179.743V34.7965H184.653V22.095C184.653 19.3604 185.388 14.7682 190.294 14.7682H192.752V9.85791H191.118C188.149 9.85791 185.962 10.7265 184.447 12.5066V12.5109Z" fill="black"/>
<path d="M214.293 29.134V18.7458C214.293 12.9239 210.666 9.58301 204.337 9.58301C198.376 9.58301 194.466 12.5455 193.883 17.5075L193.807 18.1696H198.692L198.781 17.6924C199.199 15.4823 201.209 14.1666 204.156 14.1666C207.479 14.1666 209.383 15.7489 209.383 18.5136V19.5542H203.104C196.682 19.5542 193.148 22.3963 193.148 27.5517C193.148 32.1267 196.75 35.0849 202.328 35.0849C205.406 35.0849 207.901 34.0444 209.75 31.9891C210.244 33.8853 211.756 34.8054 214.357 34.8054H216.995V30.1316H215.226C214.462 30.1316 214.297 30.0456 214.297 29.1383L214.293 29.134ZM202.598 30.6389C199.866 30.6389 198.101 29.3361 198.101 27.3195C198.101 25.0536 199.617 23.9528 202.733 23.9528H209.379V24.5247C209.379 28.2956 206.778 30.6389 202.598 30.6389Z" fill="black"/>
<path d="M230.726 9.58301C227.032 9.58301 224.739 11.032 223.422 12.3435L223.033 9.86249H218.71V34.7968H223.62V22.3275C223.62 17.2753 226.035 14.2568 230.084 14.2568C234.822 14.2568 235.814 18.0363 235.814 21.2096V34.7968H240.724V20.9774C240.724 11.0621 234.458 9.58301 230.722 9.58301H230.726Z" fill="black"/>
<path d="M253.695 19.7909C250.182 19.3566 248.349 19.0341 248.349 17.0261C248.349 15.2073 250.258 14.0292 253.213 14.0292C256.009 14.0292 258.056 15.5212 258.31 17.7442L258.369 18.2688H263.355L263.309 17.6324C262.937 12.6447 259.167 9.63913 253.222 9.58753C250.043 9.57463 247.298 10.5335 245.516 12.3308C244.191 13.6723 243.485 15.3922 243.485 17.3013C243.485 22.848 248.371 23.9229 253.374 24.5507L253.627 24.5808C257.284 25.0194 258.901 25.3118 258.901 27.5949C258.901 29.3879 256.828 30.6349 253.855 30.6349C250.418 30.6349 248.113 28.9537 247.986 26.3523L247.957 25.789H242.97L242.979 26.391C243.072 31.7485 247.239 35.0765 253.851 35.0765C259.686 35.0765 263.76 31.8861 263.76 27.3111C263.76 21.5022 258.998 20.4358 253.691 19.7823L253.695 19.7909Z" fill="black"/>
<path d="M286.62 29.134V18.7458C286.62 12.9239 282.993 9.58301 276.664 9.58301C270.702 9.58301 266.792 12.5455 266.209 17.5075L266.133 18.1696H271.019L271.107 17.6924C271.525 15.4823 273.535 14.1666 276.482 14.1666C279.805 14.1666 281.709 15.7489 281.709 18.5136V19.5542H275.431C269.009 19.5542 265.475 22.3963 265.475 27.5517C265.475 32.1267 269.076 35.0849 274.654 35.0849C277.732 35.0849 280.227 34.0444 282.076 31.9891C282.57 33.8853 284.082 34.8054 286.683 34.8054H289.322V30.1316H287.553C286.788 30.1316 286.624 30.0456 286.624 29.1383L286.62 29.134ZM274.924 30.6389C272.192 30.6389 270.427 29.3361 270.427 27.3195C270.427 25.0536 271.943 23.9528 275.059 23.9528H281.705V24.5247C281.705 28.2956 279.104 30.6389 274.924 30.6389Z" fill="black"/>
<path d="M301.444 14.1666C304.517 14.1666 306.645 15.8479 307.279 18.7803L307.38 19.2447H312.48L312.349 18.5438C311.302 12.8509 307.342 9.5874 301.49 9.5874C294.443 9.5874 289.52 14.8503 289.52 22.3792C289.52 29.9081 294.181 35.0807 301.397 35.0807C307.266 35.0807 311.357 31.7656 312.349 26.2103L312.472 25.5137H307.342L307.232 25.9652C306.544 28.803 304.382 30.4971 301.439 30.4971C297.302 30.4971 294.519 27.2336 294.519 22.3792C294.519 17.5248 297.302 14.1666 301.439 14.1666H301.444Z" fill="black"/>
<path d="M324.083 30.123C322.398 30.123 321.964 29.6801 321.964 27.9645V14.5363H328.001V9.86248H321.964V3.20215H317.053V9.86248H312.844V14.5363H317.053V28.0118C317.053 32.7673 319.046 34.7968 323.716 34.7968H328.369V30.123H324.083Z" fill="black"/>
<path d="M331.924 7.45891V3.93741H330.488V3.20215H334.119V3.93741H332.684V7.45891H331.919H331.924ZM334.596 7.46751V3.20215H335.753L336.775 6.42697H336.826L337.869 3.20215H339.004V7.46751H338.24V4.27279H338.198L337.147 7.46751H336.403L335.339 4.22119H335.297V7.46751H334.596Z" fill="black"/>
<path d="M38.5613 17.9678H0V22.2675H38.5613V17.9678Z" fill="black"/>
<path d="M13.3421 25.0063H0V29.3061H13.3421V25.0063Z" fill="black"/>
<path d="M38.5613 10.9248H25.2234V15.2246H38.5613V10.9248Z" fill="black"/>
<path d="M7.13935 4.71156L4.15381 7.75195L31.4208 35.5198L34.4063 32.4794L7.13935 4.71156Z" fill="black"/>
<path d="M31.4208 4.71453L4.15381 32.4824L7.13935 35.5228L34.4063 7.75493L31.4208 4.71453Z" fill="black"/>
<path d="M21.3939 0.480469H17.1718V20.1175H21.3939V0.480469Z" fill="black"/>
</g>
<defs>
<clipPath id="clip0_48_352">
<rect width="339" height="35.0388" fill="white" transform="translate(0 0.480469)"/>
</clipPath>
</defs>
</svg>
