<svg width="32" height="32" viewBox="0 0 32 32" fill="none" xmlns="http://www.w3.org/2000/svg">
<path d="M5.33545 25.3333V22.6667H8.00212V13.3333C8.00212 11.4889 8.55767 9.84977 9.66878 8.41599C10.7799 6.98221 12.2243 6.04355 14.0021 5.59999V4.66666C14.0021 4.1111 14.1968 3.63866 14.5861 3.24933C14.9754 2.85999 15.4474 2.66577 16.0021 2.66666C16.5577 2.66666 17.0301 2.86133 17.4194 3.25066C17.8088 3.63999 18.003 4.11199 18.0021 4.66666V5.59999C19.7799 6.04444 21.2243 6.98355 22.3354 8.41733C23.4466 9.8511 24.0021 11.4898 24.0021 13.3333V22.6667H26.6688V25.3333H5.33545ZM16.0021 29.3333C15.2688 29.3333 14.6408 29.072 14.1181 28.5493C13.5954 28.0267 13.3346 27.3991 13.3354 26.6667H18.6688C18.6688 27.4 18.4074 28.028 17.8848 28.5507C17.3621 29.0733 16.7346 29.3342 16.0021 29.3333ZM10.6688 22.6667H21.3354V13.3333C21.3354 11.8667 20.8132 10.6111 19.7688 9.56666C18.7243 8.52222 17.4688 7.99999 16.0021 7.99999C14.5354 7.99999 13.2799 8.52222 12.2354 9.56666C11.191 10.6111 10.6688 11.8667 10.6688 13.3333V22.6667Z" fill="#2C2D2C"/>
</svg>
