<svg width="24" height="24" viewBox="0 0 24 24" fill="none" xmlns="http://www.w3.org/2000/svg">
<g clip-path="url(#clip0_201_1012)">
<path fill-rule="evenodd" clip-rule="evenodd" d="M12.7069 15.707C12.5193 15.8945 12.265 15.9998 11.9999 15.9998C11.7347 15.9998 11.4804 15.8945 11.2929 15.707L5.63585 10.05C5.54034 9.95775 5.46416 9.84741 5.41175 9.7254C5.35934 9.6034 5.33176 9.47218 5.3306 9.3394C5.32945 9.20662 5.35475 9.07494 5.40503 8.95205C5.45531 8.82915 5.52957 8.7175 5.62346 8.6236C5.71735 8.52971 5.829 8.45546 5.9519 8.40518C6.0748 8.3549 6.20648 8.3296 6.33926 8.33075C6.47204 8.3319 6.60325 8.35949 6.72526 8.4119C6.84726 8.46431 6.95761 8.54049 7.04985 8.636L11.9999 13.586L16.9499 8.636C17.1385 8.45384 17.3911 8.35305 17.6533 8.35533C17.9155 8.3576 18.1663 8.46277 18.3517 8.64818C18.5371 8.83359 18.6423 9.0844 18.6445 9.3466C18.6468 9.6088 18.546 9.8614 18.3639 10.05L12.7069 15.707Z" fill="#727272"/>
</g>
<defs>
<clipPath id="clip0_201_1012">
<rect width="24" height="24" fill="white"/>
</clipPath>
</defs>
</svg>
