<svg width="32" height="32" viewBox="0 0 32 32" fill="none" xmlns="http://www.w3.org/2000/svg">
<path d="M13.7686 5.756C14.3366 3.41467 17.6673 3.41467 18.2353 5.756C18.3205 6.10773 18.4876 6.43437 18.7229 6.70933C18.9582 6.98429 19.2551 7.19981 19.5895 7.33833C19.9238 7.47685 20.2862 7.53447 20.647 7.50649C21.0078 7.47852 21.3569 7.36574 21.666 7.17733C23.7233 5.924 26.0793 8.27867 24.826 10.3373C24.6378 10.6462 24.5252 10.9951 24.4973 11.3557C24.4694 11.7163 24.527 12.0784 24.6653 12.4125C24.8037 12.7467 25.0189 13.0434 25.2936 13.2787C25.5682 13.514 25.8945 13.6812 26.246 13.7667C28.5873 14.3347 28.5873 17.6653 26.246 18.2333C25.8942 18.3186 25.5676 18.4856 25.2926 18.7209C25.0177 18.9563 24.8021 19.2532 24.6636 19.5875C24.5251 19.9219 24.4675 20.2842 24.4955 20.645C24.5234 21.0059 24.6362 21.355 24.8246 21.664C26.078 23.7213 23.7233 26.0773 21.6646 24.824C21.3557 24.6359 21.0068 24.5233 20.6463 24.4954C20.2857 24.4674 19.9236 24.525 19.5894 24.6634C19.2553 24.8017 18.9585 25.017 18.7232 25.2916C18.4879 25.5663 18.3207 25.8926 18.2353 26.244C17.6673 28.5853 14.3366 28.5853 13.7686 26.244C13.6834 25.8923 13.5163 25.5656 13.281 25.2907C13.0457 25.0157 12.7488 24.8002 12.4144 24.6617C12.0801 24.5232 11.7177 24.4655 11.3569 24.4935C10.9961 24.5215 10.647 24.6343 10.338 24.8227C8.28062 26.076 5.92462 23.7213 7.17795 21.6627C7.36609 21.3538 7.47869 21.0049 7.5066 20.6443C7.53451 20.2837 7.47694 19.9216 7.33858 19.5875C7.20022 19.2533 6.98497 18.9566 6.71032 18.7213C6.43567 18.486 6.10937 18.3188 5.75795 18.2333C3.41662 17.6653 3.41662 14.3347 5.75795 13.7667C6.10969 13.6814 6.43633 13.5144 6.71129 13.2791C6.98625 13.0437 7.20176 12.7468 7.34028 12.4125C7.4788 12.0781 7.53642 11.7158 7.50845 11.355C7.48047 10.9941 7.36769 10.645 7.17929 10.336C5.92595 8.27867 8.28062 5.92267 10.3393 7.176C11.6726 7.98667 13.4006 7.26933 13.7686 5.756Z" stroke="black" stroke-width="2" stroke-linecap="round" stroke-linejoin="round"/>
<path d="M12.002 16C12.002 17.0609 12.4234 18.0783 13.1735 18.8284C13.9237 19.5786 14.9411 20 16.002 20C17.0628 20 18.0802 19.5786 18.8304 18.8284C19.5805 18.0783 20.002 17.0609 20.002 16C20.002 14.9391 19.5805 13.9217 18.8304 13.1716C18.0802 12.4214 17.0628 12 16.002 12C14.9411 12 13.9237 12.4214 13.1735 13.1716C12.4234 13.9217 12.002 14.9391 12.002 16Z" stroke="black" stroke-width="2" stroke-linecap="round" stroke-linejoin="round"/>
</svg>
