<svg width="26" height="26" viewBox="0 0 26 26" fill="none" xmlns="http://www.w3.org/2000/svg">
<g id="ooui:success" clip-path="url(#clip0_660_6419)">
<path id="Vector" d="M12.9312 25.9303C9.7136 25.9303 6.62782 24.6109 4.35265 22.2624C2.07749 19.9138 0.799316 16.7285 0.799316 13.4071C0.799316 10.0858 2.07749 6.90043 4.35265 4.55187C6.62782 2.20332 9.7136 0.883911 12.9312 0.883911C16.1487 0.883911 19.2345 2.20332 21.5097 4.55187C23.7849 6.90043 25.063 10.0858 25.063 13.4071C25.063 16.7285 23.7849 19.9138 21.5097 22.2624C19.2345 24.6109 16.1487 25.9303 12.9312 25.9303ZM10.5048 19.6687L21.4235 9.024L19.6037 7.14551L10.5048 15.9118L6.25865 11.5286L4.43887 13.4071L10.5048 19.6687Z" fill="#2C2D2C"/>
</g>
<defs>
<clipPath id="clip0_660_6419">
<rect width="24.2637" height="25.0464" fill="white" transform="translate(0.799316 0.883911)"/>
</clipPath>
</defs>
</svg>
