<svg width="25" height="26" viewBox="0 0 25 26" fill="none" xmlns="http://www.w3.org/2000/svg">
<g id="layers-edit">
<path id="Vector" d="M4.87616 10.9295L3.1875 9.61122L12.5114 2.34497L20.7371 8.74965L13.0294 16.4726L12.5114 16.8775L4.87616 10.9295ZM10.4394 19.9293V19.0677L11.0506 18.4657L11.0921 18.4345L4.8658 13.5661L3.1875 14.8741L10.4394 20.5106V19.9293ZM22.5604 13.3274L21.2344 11.9987C21.0168 11.7807 20.6542 11.7807 20.4366 11.9987L19.4007 13.0367L21.5244 15.1647L22.5604 14.1267C22.778 13.9087 22.778 13.5454 22.5604 13.3274ZM12.5114 22.0677H14.6455L20.9132 15.7668L18.7894 13.6388L12.5114 19.9293V22.0677Z" fill="black"/>
</g>
</svg>
